<?xml version="1.0" encoding="utf-8"?>
<!-- Generator: Adobe Illustrator 24.2.0, SVG Export Plug-In . SVG Version: 6.00 Build 0)  -->
<svg version="1.1" id="Layer_1" xmlns="http://www.w3.org/2000/svg" xmlns:xlink="http://www.w3.org/1999/xlink" x="0px" y="0px"
	 viewBox="0 0 116.2 97.7" style="enable-background:new 0 0 116.2 97.7;" xml:space="preserve">
<style type="text/css">
	.st0{fill:#1D3557;}
	.st1{fill:#FA525D;}
	.st2{opacity:0.2;fill:#010101;enable-background:new    ;}
	.st3{fill:#343F49;fill-opacity:0.71;}
</style>
<g id="Layer_2_1_">
	<g id="Layer_1-2">
		<path class="st0" d="M2,15.5h32.5c1.1,0,2-0.9,2-2s-0.9-2-2-2H2c-1.1,0-2,0.9-2,2S0.9,15.5,2,15.5z"/>
		<path class="st0" d="M88.7,63.9c2.6,10.7,3.3,21.5,1.5,30.4c-3.2,7.6-25.6,0.9-19.6-6c2.2-2.3,9.9-10.6,6.1-19L88.7,63.9z"/>
		<path class="st1" d="M38.8,27.2c0-3.2-6-7-6-12.1C32.7,7.6,40,0,48.3,0c8.3,0,15.1,6.8,15.1,15.1c0,6,0.1,7.7,2.3,9.3l0.4,0.3h0.1
			l0,0C78.3,33.3,87.8,54,90.4,73.3C65.9,77,42.9,60.1,39.2,35.5c-0.3-2.2-0.5-4.5-0.5-6.7C38.7,28.3,38.7,27.7,38.8,27.2L38.8,27.2
			z"/>
		<path class="st0" d="M38.8,27.2c0-1.8-1.8-3.7-3.5-5.9c2.8,3.4,9.8,2.2,12,9.1c1.9,5.9-4.5,8.8-6.1,13.2
			c-1.7-4.8-2.5-9.8-2.5-14.8C38.7,28.3,38.7,27.7,38.8,27.2L38.8,27.2z"/>
		<path class="st0" d="M42.2,13.5c-1.4,0-2.6-1.1-2.6-2.5c0-1.4,1.1-2.6,2.5-2.6c1.4,0,2.6,1.1,2.6,2.5c0,0,0,0,0,0.1
			C44.7,12.4,43.6,13.5,42.2,13.5z"/>
		<path class="st2" d="M67.4,25.7c7.3,5.7,13.6,15.8,17.8,27.1c-4.7,1.5-9.6,2.3-14.5,2.2c-6.8,0-12.4-5.5-12.4-12.4l0,0
			C58.3,35.5,61.9,29.9,67.4,25.7z"/>
		<path class="st3" d="M116.2,11.4C112.8,35,92.6,52.5,68.8,52.5c-6.8,0-12.4-5.5-12.4-12.4C56.5,16.9,92,11.4,116.2,11.4z"/>
		<path class="st0" d="M116.2,11.4C112.8,35,92.6,52.5,68.8,52.5c-6.8,0-12.4-5.5-12.4-12.4C56.5,16.9,92,11.4,116.2,11.4z"/>
		<path class="st1" d="M115,17c-5.6,20.9-24.5,35.5-46.2,35.5c-3,0-5.9-1-8.1-3c-0.2-0.3-0.3-0.5-0.5-0.8C60,47.8,60,47,60,46.2
			C60,24.3,90.9,17.9,115,17z"/>
	</g>
</g>
</svg>
